<?xml version="1.0" encoding="UTF-8"?>
<svg xmlns="http://www.w3.org/2000/svg" xmlns:xlink="http://www.w3.org/1999/xlink" width="164px" height="70px" viewBox="0 0 174 70" version="1.1">
  <defs>
    <linearGradient id="linear0" gradientUnits="userSpaceOnUse" x1="39.748" y1="-4.1001" x2="80.9854" y2="-4.1001" gradientTransform="matrix(1,0,0,-1,-24.17,45.72)">
      <stop offset="0" style="stop-color:rgb(0%,66.27451%,80.784314%);stop-opacity:1;" />
      <stop offset="0.41" style="stop-color:rgb(0%,65.490196%,79.607843%);stop-opacity:1;" />
      <stop offset="0.66" style="stop-color:rgb(0%,62.352941%,76.470588%);stop-opacity:1;" />
      <stop offset="0.86" style="stop-color:rgb(0%,56.862745%,70.980392%);stop-opacity:1;" />
      <stop offset="1" style="stop-color:rgb(0%,51.372549%,65.098039%);stop-opacity:1;" />
    </linearGradient>
    <linearGradient id="linear1" gradientUnits="userSpaceOnUse" x1="45.9518" y1="24.9365" x2="82.6712" y2="24.9365" gradientTransform="matrix(1,0,0,-1,-24.17,45.72)">
      <stop offset="0" style="stop-color:rgb(100%,63.921569%,0%);stop-opacity:1;" />
      <stop offset="0.35" style="stop-color:rgb(98.823529%,63.529412%,0%);stop-opacity:1;" />
      <stop offset="0.56" style="stop-color:rgb(95.686275%,61.568627%,0%);stop-opacity:1;" />
      <stop offset="0.73" style="stop-color:rgb(90.196078%,58.823529%,0%);stop-opacity:1;" />
      <stop offset="0.89" style="stop-color:rgb(82.352941%,54.509804%,0%);stop-opacity:1;" />
      <stop offset="1" style="stop-color:rgb(74.117647%,50.196078%,0%);stop-opacity:1;" />
    </linearGradient>
    <linearGradient id="linear2" gradientUnits="userSpaceOnUse" x1="24.5862" y1="14.1362" x2="45.9518" y2="14.1362" gradientTransform="matrix(1,0,0,-1,-24.17,45.72)">
      <stop offset="0" style="stop-color:rgb(0%,69.411765%,25.098039%);stop-opacity:1;" />
      <stop offset="0.39" style="stop-color:rgb(0%,68.235294%,25.098039%);stop-opacity:1;" />
      <stop offset="0.62" style="stop-color:rgb(0.392157%,65.098039%,24.313725%);stop-opacity:1;" />
      <stop offset="0.82" style="stop-color:rgb(0.784314%,59.607843%,23.137255%);stop-opacity:1;" />
      <stop offset="0.99" style="stop-color:rgb(1.176471%,51.764706%,21.568627%);stop-opacity:1;" />
      <stop offset="1" style="stop-color:rgb(1.176471%,50.980392%,21.568627%);stop-opacity:1;" />
    </linearGradient>
  </defs>
  <g id="surface1">
    <path style=" stroke:none;fill-rule:nonzero;fill:rgb(100%,100%,100%);fill-opacity:1;" d="M 65.101562 58.398438 C 65.101562 59.101562 65.5 59.199219 66.398438 59.5 C 67.398438 59.800781 68 60.199219 68 61.199219 C 68 62.398438 67.199219 62.898438 65.898438 62.898438 C 65.398438 62.898438 64.800781 62.898438 64.300781 62.699219 L 64.398438 62 C 64.898438 62.101562 65.398438 62.101562 65.898438 62.101562 C 66.699219 62.101562 67.199219 61.898438 67.199219 61.101562 C 67.199219 60.398438 66.699219 60.199219 66 60 C 64.898438 59.699219 64.300781 59.398438 64.300781 58.300781 C 64.300781 57.101562 65 56.699219 66.300781 56.699219 C 66.800781 56.699219 67.300781 56.800781 67.898438 56.898438 L 67.800781 57.5 C 67.398438 57.398438 67 57.398438 66.601562 57.398438 C 65.898438 57.601562 65.101562 57.699219 65.101562 58.398438 Z M 65.101562 58.398438 " />
    <path style=" stroke:none;fill-rule:nonzero;fill:rgb(100%,100%,100%);fill-opacity:1;" d="M 69.199219 57 L 70 57 L 70 62.898438 L 69.199219 62.898438 Z M 69.199219 57 " />
    <path style=" stroke:none;fill-rule:nonzero;fill:rgb(100%,100%,100%);fill-opacity:1;" d="M 72 58.398438 C 72 59.101562 72.398438 59.199219 73.300781 59.5 C 74.300781 59.800781 74.898438 60.199219 74.898438 61.199219 C 74.898438 62.398438 74.101562 62.898438 72.800781 62.898438 C 72.300781 62.898438 71.699219 62.898438 71.199219 62.699219 L 71.300781 62 C 71.800781 62.101562 72.300781 62.101562 72.800781 62.101562 C 73.601562 62.101562 74.101562 61.898438 74.101562 61.101562 C 74.101562 60.398438 73.601562 60.199219 72.898438 60 C 71.800781 59.699219 71.199219 59.398438 71.199219 58.300781 C 71.199219 57.101562 71.898438 56.699219 73.199219 56.699219 C 73.699219 56.699219 74.199219 56.800781 74.800781 56.898438 L 74.699219 57.5 C 74.300781 57.398438 73.898438 57.398438 73.5 57.398438 C 72.800781 57.601562 72 57.699219 72 58.398438 Z M 72 58.398438 " />
    <path style=" stroke:none;fill-rule:nonzero;fill:rgb(100%,100%,100%);fill-opacity:1;" d="M 79.699219 57.699219 L 78.101562 57.699219 L 78.101562 62.898438 L 77.300781 62.898438 L 77.300781 57.699219 L 75.699219 57.699219 L 75.699219 57 L 79.699219 57 Z M 79.699219 57.699219 " />
    <path style=" stroke:none;fill-rule:nonzero;fill:rgb(100%,100%,100%);fill-opacity:1;" d="M 84.199219 57.699219 L 82.699219 57.699219 C 81.699219 57.699219 81.601562 57.898438 81.601562 58.699219 L 81.601562 59.601562 L 84.101562 59.601562 L 84.101562 60.300781 L 81.601562 60.300781 L 81.601562 61.300781 C 81.601562 62.101562 81.800781 62.300781 82.699219 62.300781 L 84.199219 62.300781 L 84.199219 62.898438 C 83.699219 62.898438 83.101562 62.898438 82.699219 62.898438 C 81.699219 62.898438 80.699219 62.800781 80.699219 61.601562 L 80.699219 58.398438 C 80.699219 57.101562 81.699219 57.101562 82.699219 57.101562 C 83.101562 57.101562 83.699219 57.101562 84.199219 57.101562 Z M 84.199219 57.699219 " />
    <path style=" stroke:none;fill-rule:nonzero;fill:rgb(100%,100%,100%);fill-opacity:1;" d="M 88.398438 61.101562 L 90 57.5 C 90.199219 57.199219 90.398438 57 90.601562 57 C 91 57 91.101562 57.199219 91.101562 57.601562 L 91.398438 63 L 90.601562 63 L 90.398438 58.199219 L 88.898438 61.800781 C 88.800781 62.101562 88.601562 62.199219 88.300781 62.199219 C 88.101562 62.199219 88 62 87.898438 61.800781 L 86.398438 58.199219 L 86.199219 62.898438 L 85.398438 62.898438 L 85.699219 57.5 C 85.699219 57.101562 85.898438 56.898438 86.199219 56.898438 C 86.398438 56.898438 86.699219 57.101562 86.800781 57.398438 Z M 88.398438 61.101562 " />
    <path style=" stroke:none;fill-rule:nonzero;fill:rgb(100%,100%,100%);fill-opacity:1;" d="M 92.398438 62.898438 L 94.300781 57.5 C 94.398438 57.101562 94.800781 56.898438 95.101562 57 C 95.398438 57.101562 95.601562 57.300781 95.601562 57.5 L 97.5 62.898438 L 96.601562 62.898438 L 96 61.300781 L 93.601562 61.300781 L 93 62.898438 Z M 96 60.601562 L 95 57.699219 L 94 60.601562 Z M 96 60.601562 " />
    <path style=" stroke:none;fill-rule:nonzero;fill:rgb(100%,100%,100%);fill-opacity:1;" d="M 101 57.101562 C 101.601562 57 102.199219 57 102.800781 57 C 105 57 105.398438 58 105.398438 60 C 105.398438 62 105 63 102.800781 63 C 102.199219 63 101.601562 63 101 62.898438 Z M 101.800781 57.699219 L 101.800781 62.300781 C 102.101562 62.300781 102.398438 62.398438 102.601562 62.398438 C 104.5 62.398438 104.5 61.398438 104.5 60.101562 C 104.5 58.800781 104.5 57.800781 102.601562 57.800781 C 102.398438 57.601562 102.101562 57.601562 101.800781 57.699219 Z M 101.800781 57.699219 " />
    <path style=" stroke:none;fill-rule:nonzero;fill:rgb(100%,100%,100%);fill-opacity:1;" d="M 110.199219 57.699219 L 108.699219 57.699219 C 107.699219 57.699219 107.601562 57.898438 107.601562 58.699219 L 107.601562 59.601562 L 110.199219 59.601562 L 110.199219 60.300781 L 107.699219 60.300781 L 107.699219 61.300781 C 107.699219 62.101562 107.898438 62.300781 108.800781 62.300781 L 110.300781 62.300781 L 110.300781 62.898438 C 109.898438 62.898438 109.199219 62.898438 108.800781 62.898438 C 107.800781 62.898438 106.800781 62.800781 106.800781 61.601562 L 106.800781 58.398438 C 106.800781 57.101562 107.800781 57.101562 108.800781 57.101562 C 109.199219 57.101562 109.800781 57.101562 110.300781 57.101562 Z M 110.199219 57.699219 " />
    <path style=" stroke:none;fill-rule:nonzero;fill:rgb(100%,100%,100%);fill-opacity:1;" d="M 117.398438 62.800781 C 116.898438 62.898438 116.5 62.898438 116 62.898438 C 114.101562 62.898438 113.601562 62 113.601562 59.898438 C 113.601562 57.800781 114.101562 56.898438 116 56.898438 C 116.5 56.898438 116.898438 56.898438 117.398438 57 L 117.300781 57.699219 C 116.898438 57.601562 116.601562 57.601562 116.199219 57.601562 C 114.5 57.601562 114.398438 58.5 114.398438 59.898438 C 114.398438 61.300781 114.5 62.199219 116.199219 62.199219 C 116.601562 62.199219 116.898438 62.199219 117.300781 62.101562 Z M 117.398438 62.800781 " />
    <path style=" stroke:none;fill-rule:nonzero;fill:rgb(100%,100%,100%);fill-opacity:1;" d="M 118.300781 60 C 118.300781 57.898438 118.800781 57 120.601562 57 C 122.398438 57 122.898438 57.898438 122.898438 60 C 122.898438 62.101562 122.398438 63 120.601562 63 C 118.800781 63 118.300781 62.101562 118.300781 60 Z M 122.101562 60 C 122.101562 58.601562 122 57.699219 120.601562 57.699219 C 119.199219 57.699219 119.101562 58.699219 119.101562 60 C 119.101562 61.300781 119.199219 62.300781 120.601562 62.300781 C 122 62.300781 122.101562 61.300781 122.101562 60 Z M 122.101562 60 " />
    <path style=" stroke:none;fill-rule:nonzero;fill:rgb(100%,100%,100%);fill-opacity:1;" d="M 124.101562 60 C 124.101562 57.898438 124.601562 57 126.398438 57 C 128.199219 57 128.699219 57.898438 128.699219 60 C 128.699219 62.101562 128.199219 63 126.398438 63 C 124.601562 63 124.101562 62.101562 124.101562 60 Z M 127.898438 60 C 127.898438 58.601562 127.800781 57.699219 126.398438 57.699219 C 125 57.699219 124.898438 58.699219 124.898438 60 C 124.898438 61.300781 124.898438 62.300781 126.398438 62.300781 C 127.898438 62.300781 127.898438 61.300781 127.898438 60 Z M 127.898438 60 " />
    <path style=" stroke:none;fill-rule:nonzero;fill:rgb(100%,100%,100%);fill-opacity:1;" d="M 130.898438 62.898438 L 130 62.898438 L 130 57.101562 C 130.601562 57 131.199219 56.898438 131.800781 56.898438 C 133.101562 56.898438 134.101562 57.199219 134.101562 58.699219 C 134.101562 60.300781 133.199219 60.5 131.800781 60.5 C 131.5 60.5 131 60.5 130.699219 60.5 Z M 130.898438 59.898438 C 131.199219 59.898438 131.601562 60 131.898438 59.898438 C 132.898438 59.898438 133.398438 59.699219 133.398438 58.699219 C 133.398438 57.898438 133 57.5 131.898438 57.5 C 131.5 57.5 131.199219 57.5 130.898438 57.601562 Z M 130.898438 59.898438 " />
    <path style=" stroke:none;fill-rule:nonzero;fill:rgb(100%,100%,100%);fill-opacity:1;" d="M 138.800781 57.699219 L 137.300781 57.699219 C 136.300781 57.699219 136.199219 57.898438 136.199219 58.699219 L 136.199219 59.601562 L 138.699219 59.601562 L 138.699219 60.300781 L 136.101562 60.300781 L 136.101562 61.300781 C 136.101562 62.101562 136.300781 62.300781 137.199219 62.300781 L 138.699219 62.300781 L 138.699219 62.898438 C 138.300781 62.898438 137.601562 62.898438 137.199219 62.898438 C 136.199219 62.898438 135.199219 62.800781 135.199219 61.601562 L 135.199219 58.398438 C 135.199219 57.101562 136.199219 57.101562 137.199219 57.101562 C 137.601562 57.101562 138.199219 57.101562 138.699219 57.101562 Z M 138.800781 57.699219 " />
    <path style=" stroke:none;fill-rule:nonzero;fill:rgb(100%,100%,100%);fill-opacity:1;" d="M 140 62.898438 L 140 57.101562 C 140.601562 57 141.199219 56.898438 141.800781 56.898438 C 143.101562 56.898438 144.101562 57.101562 144.101562 58.699219 C 144.199219 59.5 143.601562 60.300781 142.800781 60.398438 L 144.199219 62.800781 L 143.199219 62.800781 L 141.898438 60.398438 C 141.601562 60.398438 141.101562 60.398438 140.800781 60.398438 L 140.800781 63 Z M 140.898438 59.800781 C 141.199219 59.800781 141.601562 59.800781 141.898438 59.800781 C 142.898438 59.800781 143.398438 59.601562 143.398438 58.601562 C 143.398438 57.800781 143 57.5 141.898438 57.5 C 141.601562 57.5 141.199219 57.5 140.898438 57.601562 Z M 140.898438 59.800781 " />
    <path style=" stroke:none;fill-rule:nonzero;fill:rgb(100%,100%,100%);fill-opacity:1;" d="M 145.300781 62.898438 L 147.199219 57.5 C 147.300781 57.101562 147.699219 56.898438 148 57 C 148.300781 57.101562 148.5 57.300781 148.5 57.5 L 150.398438 62.898438 L 149.5 62.898438 L 148.898438 61.300781 L 146.5 61.300781 L 145.898438 62.898438 Z M 148.800781 60.601562 L 147.800781 57.699219 L 146.800781 60.601562 Z M 148.800781 60.601562 " />
    <path style=" stroke:none;fill-rule:nonzero;fill:rgb(100%,100%,100%);fill-opacity:1;" d="M 154.199219 57.699219 L 152.601562 57.699219 L 152.601562 62.898438 L 151.800781 62.898438 L 151.800781 57.699219 L 150.199219 57.699219 L 150.199219 57 L 154.199219 57 Z M 154.199219 57.699219 " />
    <path style=" stroke:none;fill-rule:nonzero;fill:rgb(100%,100%,100%);fill-opacity:1;" d="M 155.300781 57 L 156.101562 57 L 156.101562 62.898438 L 155.300781 62.898438 Z M 155.300781 57 " />
    <path style=" stroke:none;fill-rule:nonzero;fill:rgb(100%,100%,100%);fill-opacity:1;" d="M 160.300781 62.398438 C 160.199219 62.800781 160 63 159.699219 63 C 159.398438 63 159.199219 62.800781 159.101562 62.398438 L 157.300781 57 L 158.199219 57 L 159.800781 62 L 161.398438 57 L 162.199219 57 Z M 160.300781 62.398438 " />
    <path style=" stroke:none;fill-rule:nonzero;fill:rgb(100%,100%,100%);fill-opacity:1;" d="M 161.898438 62.898438 L 163.800781 57.5 C 163.898438 57.101562 164.300781 56.898438 164.601562 57 C 164.898438 57.101562 165.101562 57.300781 165.101562 57.5 L 167 62.898438 L 166.101562 62.898438 L 165.5 61.300781 L 163.101562 61.300781 L 162.5 62.898438 Z M 165.398438 60.601562 L 164.398438 57.699219 L 163.398438 60.601562 Z M 165.398438 60.601562 " />
    <path style=" stroke:none;fill-rule:nonzero;fill:rgb(100%,100%,100%);fill-opacity:1;" d="M 168.699219 58.398438 C 168.699219 59.101562 169.101562 59.199219 170 59.5 C 171 59.800781 171.601562 60.199219 171.601562 61.199219 C 171.601562 62.398438 170.800781 62.898438 169.5 62.898438 C 169 62.898438 168.398438 62.898438 167.898438 62.699219 L 168 62 C 168.5 62.101562 169 62.101562 169.5 62.101562 C 170.300781 62.101562 170.800781 61.898438 170.800781 61.101562 C 170.800781 60.398438 170.300781 60.199219 169.601562 60 C 168.5 59.699219 167.898438 59.398438 167.898438 58.300781 C 167.898438 57.101562 168.601562 56.699219 169.898438 56.699219 C 170.398438 56.699219 170.898438 56.800781 171.5 56.898438 L 171.398438 57.5 C 171 57.398438 170.601562 57.398438 170.199219 57.398438 C 169.5 57.601562 168.699219 57.699219 168.699219 58.398438 Z M 168.699219 58.398438 " />
    <path style=" stroke:none;fill-rule:nonzero;fill:rgb(100%,100%,100%);fill-opacity:1;" d="M 64.300781 48.300781 L 73 23.101562 C 74 20.300781 75.5 19.101562 77.800781 19.101562 C 80.101562 19.101562 81.601562 20.398438 82.5 23.101562 L 91 48.300781 L 84.800781 48.300781 L 82.601562 41.101562 L 72.699219 41.101562 L 70.5 48.300781 Z M 81.101562 36.601562 L 77.5 24.898438 L 74 36.601562 Z M 81.101562 36.601562 " />
    <path style=" stroke:none;fill-rule:nonzero;fill:rgb(100%,100%,100%);fill-opacity:1;" d="M 94.300781 19.300781 L 100.199219 19.300781 L 100.199219 48.300781 L 94.300781 48.300781 Z M 94.300781 19.300781 " />
    <path style=" stroke:none;fill-rule:nonzero;fill:rgb(100%,100%,100%);fill-opacity:1;" d="M 123.5 48.199219 C 121.398438 48.300781 117.898438 48.398438 116.101562 48.398438 C 110.898438 48.398438 106 48.101562 106 41.300781 L 106 19.300781 L 111.898438 19.300781 L 111.898438 39.699219 C 111.898438 42.898438 112.5 43.601562 116 43.601562 L 123.5 43.601562 Z M 123.5 48.199219 " />
    <path style=" stroke:none;fill-rule:nonzero;fill:rgb(100%,100%,100%);fill-opacity:1;" d="M 126.101562 33.800781 C 126.101562 23.300781 128.699219 19 137.699219 19 C 146.699219 19 149.300781 23.300781 149.300781 33.800781 C 149.300781 44.300781 146.699219 48.601562 137.699219 48.601562 C 128.699219 48.601562 126.101562 44.300781 126.101562 33.800781 Z M 143.300781 33.800781 C 143.300781 27.898438 143.199219 23.800781 137.699219 23.800781 C 132.199219 23.800781 132.101562 27.898438 132.101562 33.800781 C 132.101562 39.699219 132.199219 43.800781 137.699219 43.800781 C 143.199219 43.800781 143.300781 39.699219 143.300781 33.800781 Z M 143.300781 33.800781 " />
    <path style=" stroke:none;fill-rule:nonzero;fill:rgb(100%,100%,100%);fill-opacity:1;" d="M 159 26.800781 C 159 29.699219 161 30.101562 164.300781 31 C 169.898438 32.5 172.199219 34.601562 172.199219 39.898438 C 172.199219 46.300781 168.300781 48.601562 161.398438 48.601562 C 158.601562 48.601562 155.800781 48.300781 153 47.699219 L 153.601562 43.101562 C 156.101562 43.5 158.699219 43.699219 161.199219 43.699219 C 164.199219 43.699219 166.101562 43 166.101562 40.101562 C 166.101562 37.398438 164 36.800781 161.300781 36 C 156.101562 34.398438 153 32.800781 153 27.300781 C 153 21 156.699219 19 163.398438 19 C 166.199219 19 169 19.300781 171.699219 19.898438 L 171.199219 24.398438 C 169.101562 24 167 23.800781 164.800781 23.800781 C 162.601562 23.800781 159 23.898438 159 26.800781 Z M 159 26.800781 " />
    <path style=" stroke:none;fill-rule:nonzero;fill:rgb(100%,100%,100%);fill-opacity:1;" d="M 43.800781 37.300781 L 38.199219 23.601562 C 37.601562 22.300781 37.199219 21.398438 36.398438 21.398438 C 35.601562 21.398438 35.101562 22.398438 34.601562 23.601562 L 31.199219 31.5 L 27.800781 23.601562 C 27.300781 22.398438 26.898438 21.398438 26 21.398438 C 25.101562 21.398438 24.800781 22.300781 24.199219 23.601562 L 18.601562 37.300781 C 18 38.601562 18.5 40.199219 19.800781 40.800781 C 20.199219 41 20.699219 41.101562 21.199219 41.101562 L 23.699219 41.101562 L 23.699219 44.199219 C 23.699219 45.300781 24.601562 46.199219 25.699219 46.199219 L 26.398438 46.199219 C 27.5 46.199219 28.398438 45.300781 28.398438 44.199219 L 28.398438 42.699219 C 28.398438 42.601562 28.398438 42.601562 28.398438 42.5 L 28.398438 41.101562 L 34 41.101562 L 34 42.5 C 34 42.601562 34 42.601562 34 42.699219 L 34 44.199219 C 34 45.300781 34.898438 46.199219 36 46.199219 L 36.699219 46.199219 C 37.800781 46.199219 38.699219 45.300781 38.699219 44.199219 L 38.699219 41.101562 L 41.199219 41.101562 C 42.699219 41.199219 43.898438 40.199219 44.101562 38.699219 C 44.199219 38.199219 44.101562 37.699219 43.800781 37.300781 Z M 28.898438 39.601562 L 27 39.601562 L 27 44.199219 C 27 44.5 26.800781 44.699219 26.5 44.699219 L 25.800781 44.699219 C 25.5 44.699219 25.300781 44.5 25.300781 44.199219 L 25.300781 39.5 L 21.300781 39.5 C 20.699219 39.601562 20.101562 39.199219 19.898438 38.601562 C 19.800781 38.300781 19.898438 38 20 37.800781 L 25.601562 24.101562 C 25.699219 23.898438 25.800781 23.601562 26 23.199219 C 26.101562 23.398438 26.199219 23.699219 26.398438 24.101562 L 30.300781 33.398438 L 28.800781 37.300781 C 28.601562 38 28.601562 38.898438 28.898438 39.601562 Z M 32.199219 39.101562 C 32 39.398438 31.601562 39.601562 31.300781 39.601562 C 30.898438 39.601562 30.601562 39.398438 30.398438 39.101562 C 30.199219 38.699219 30.199219 38.300781 30.398438 37.898438 L 31.300781 35.5 L 32.300781 37.898438 C 32.398438 38.199219 32.398438 38.699219 32.199219 39.101562 Z M 42.398438 39.101562 C 42.101562 39.398438 41.699219 39.601562 41.199219 39.601562 L 37.199219 39.601562 L 37.199219 44.199219 C 37.199219 44.5 37 44.699219 36.699219 44.699219 L 36 44.699219 C 35.699219 44.699219 35.5 44.5 35.5 44.199219 L 35.5 39.601562 L 33.699219 39.601562 C 34 38.898438 34 38 33.699219 37.300781 L 32.101562 33.398438 L 36.101562 24.101562 C 36.199219 23.800781 36.398438 23.5 36.5 23.300781 C 36.699219 23.601562 36.800781 24 36.898438 24.199219 L 42.5 37.898438 C 42.601562 38.199219 42.601562 38.699219 42.398438 39.101562 Z M 42.398438 39.101562 " />
    <path style=" stroke:none;fill-rule:nonzero;fill:url(#linear0);" d="M 46.898438 47.800781 C 42.898438 52.101562 37.199219 54.601562 31.300781 54.601562 C 30.601562 54.601562 30 54.601562 29.398438 54.5 C 24.898438 55.699219 20.101562 55.5 15.699219 53.898438 C 23.398438 64 37.898438 65.898438 48 58.101562 C 53.699219 53.699219 57 47 57 39.898438 C 57 38.898438 56.898438 37.898438 56.800781 36.898438 C 54.601562 41.398438 51.199219 45.300781 46.898438 47.800781 Z M 46.898438 47.800781 " />
    <path style=" stroke:none;fill-rule:nonzero;fill:url(#linear1);" d="M 34.898438 12.300781 C 41.601562 13.5 47.398438 17.800781 50.398438 23.898438 C 53.800781 27.398438 56 32 56.699219 36.800781 C 61.699219 25.101562 56.300781 11.601562 44.699219 6.601562 C 37.101562 3.300781 28.398438 4.398438 21.800781 9.300781 C 22.300781 9.300781 22.898438 9.199219 23.398438 9.199219 C 27.398438 9.199219 31.398438 10.300781 34.898438 12.300781 Z M 34.898438 12.300781 " />
    <path style=" stroke:none;fill-rule:nonzero;fill:rgb(53.333333%,41.960784%,14.509804%);fill-opacity:1;" d="M 52.601562 33.300781 C 52.601562 38.699219 50.601562 43.898438 46.898438 47.800781 C 51.300781 45.300781 54.699219 41.5 56.699219 36.898438 C 56.101562 32 53.898438 27.5 50.398438 23.898438 C 51.800781 26.800781 52.601562 30 52.601562 33.300781 Z M 52.601562 33.300781 " />
    <path style=" stroke:none;fill-rule:nonzero;fill:url(#linear2);" d="M 10.800781 39.300781 C 9.101562 33.398438 10 27.101562 13.199219 21.898438 C 14.5 16.800781 17.5 12.398438 21.699219 9.300781 C 9.101562 10.199219 -0.398438 21.199219 0.5 33.898438 C 1.101562 43 7.101562 50.800781 15.601562 53.898438 C 12.5 49.898438 10.800781 44.898438 10.800781 39.898438 C 10.800781 39.699219 10.800781 39.5 10.800781 39.300781 Z M 10.800781 39.300781 " />
    <path style=" stroke:none;fill-rule:nonzero;fill:rgb(0%,49.019608%,54.117647%);fill-opacity:1;" d="M 29.300781 54.5 C 20.601562 53.699219 13.300781 47.699219 10.800781 39.300781 C 10.800781 39.5 10.800781 39.699219 10.800781 39.898438 C 10.800781 45 12.5 49.898438 15.601562 53.898438 C 20 55.5 24.800781 55.699219 29.300781 54.5 Z M 29.300781 54.5 " />
    <path style=" stroke:none;fill-rule:nonzero;fill:rgb(0%,43.921569%,25.490196%);fill-opacity:1;" d="M 13.199219 21.898438 C 17.101562 15.699219 23.898438 12 31.199219 12 C 32.398438 12 33.601562 12.101562 34.800781 12.300781 C 31.300781 10.300781 27.398438 9.300781 23.398438 9.300781 C 22.898438 9.300781 22.300781 9.300781 21.800781 9.398438 C 17.601562 12.398438 14.601562 16.898438 13.199219 21.898438 Z M 13.199219 21.898438 " />
  </g>
</svg>
